<svg xmlns="http://www.w3.org/2000/svg" width="1200" height="760" viewBox="0 0 1200 760" fill="none">
  <rect width="1200" height="760" rx="28" fill="#12313A"/>
  <rect x="22" y="22" width="1156" height="716" rx="24" fill="#F7FBFB" stroke="#83C1C6" stroke-width="2"/>
  <text x="74" y="92" fill="#12313A" font-family="Avenir Next, Helvetica, Arial, sans-serif" font-size="34" font-weight="700">Replace with Lakeview Lister Access screen</text>
  <text x="74" y="134" fill="#4A6971" font-family="Avenir Next, Helvetica, Arial, sans-serif" font-size="22">Show login, create account, plan buttons, and access status in one screenshot.</text>

  <rect x="84" y="188" width="626" height="462" rx="24" fill="#FFFFFF" stroke="#D5E6E8"/>
  <rect x="744" y="188" width="352" height="462" rx="24" fill="#EAF4F5" stroke="#C7E0E3"/>
  <rect x="122" y="242" width="550" height="78" rx="18" fill="#EDF6F7"/>
  <rect x="122" y="350" width="250" height="56" rx="16" fill="#EDF6F7"/>
  <rect x="122" y="424" width="250" height="56" rx="16" fill="#EDF6F7"/>
  <rect x="122" y="520" width="180" height="50" rx="16" fill="#1A7C84"/>
  <rect x="316" y="520" width="156" height="50" rx="16" fill="#DCEBED"/>
  <rect x="780" y="242" width="280" height="64" rx="18" fill="#FFFFFF"/>
  <rect x="780" y="334" width="280" height="126" rx="18" fill="#FFFFFF"/>
  <rect x="780" y="488" width="280" height="118" rx="18" fill="#FFFFFF"/>
  <text x="138" y="286" fill="#12313A" font-family="Avenir Next, Helvetica, Arial, sans-serif" font-size="24" font-weight="700">Access / account area</text>
  <text x="796" y="278" fill="#12313A" font-family="Avenir Next, Helvetica, Arial, sans-serif" font-size="22" font-weight="700">Status panel</text>
</svg>
