<svg xmlns="http://www.w3.org/2000/svg" width="1200" height="760" viewBox="0 0 1200 760" fill="none">
  <rect width="1200" height="760" rx="28" fill="#12313A"/>
  <rect x="22" y="22" width="1156" height="716" rx="24" fill="#F7FBFB" stroke="#83C1C6" stroke-width="2"/>
  <text x="74" y="90" fill="#12313A" font-family="Avenir Next, Helvetica, Arial, sans-serif" font-size="34" font-weight="700">Replace with an Active Listings screenshot</text>
  <text x="74" y="132" fill="#4A6971" font-family="Avenir Next, Helvetica, Arial, sans-serif" font-size="22">Show loaded eBay inventory and one listing opened for editing.</text>

  <rect x="74" y="188" width="330" height="488" rx="22" fill="#EAF4F5" stroke="#C7E0E3"/>
  <rect x="434" y="188" width="692" height="488" rx="22" fill="#FFFFFF"/>

  <rect x="104" y="222" width="270" height="76" rx="18" fill="#FFFFFF"/>
  <rect x="104" y="316" width="270" height="76" rx="18" fill="#FFFFFF"/>
  <rect x="104" y="410" width="270" height="76" rx="18" fill="#FFFFFF"/>
  <rect x="104" y="504" width="270" height="76" rx="18" fill="#FFFFFF"/>

  <rect x="468" y="224" width="624" height="62" rx="18" fill="#EDF6F7"/>
  <rect x="468" y="314" width="286" height="244" rx="18" fill="#EDF6F7"/>
  <rect x="786" y="314" width="306" height="116" rx="18" fill="#EDF6F7"/>
  <rect x="786" y="450" width="306" height="108" rx="18" fill="#EDF6F7"/>

  <text x="484" y="260" fill="#12313A" font-family="Avenir Next, Helvetica, Arial, sans-serif" font-size="22" font-weight="700">This shot should prove live listing management exists</text>
</svg>
