<svg xmlns="http://www.w3.org/2000/svg" width="1200" height="760" viewBox="0 0 1200 760" fill="none">
  <rect width="1200" height="760" rx="28" fill="#12313A"/>
  <rect x="22" y="22" width="1156" height="716" rx="24" fill="#F7FBFB" stroke="#83C1C6" stroke-width="2"/>
  <text x="74" y="90" fill="#12313A" font-family="Avenir Next, Helvetica, Arial, sans-serif" font-size="34" font-weight="700">Replace with a Draft Queue or Saved Drafts screenshot</text>
  <text x="74" y="132" fill="#4A6971" font-family="Avenir Next, Helvetica, Arial, sans-serif" font-size="22">Show the list on the left and the listing editor on the right.</text>

  <rect x="74" y="188" width="304" height="484" rx="22" fill="#EAF4F5" stroke="#C7E0E3"/>
  <rect x="410" y="188" width="716" height="484" rx="22" fill="#FFFFFF"/>

  <rect x="104" y="224" width="244" height="96" rx="18" fill="#FFFFFF"/>
  <rect x="104" y="338" width="244" height="96" rx="18" fill="#FFFFFF"/>
  <rect x="104" y="452" width="244" height="96" rx="18" fill="#FFFFFF"/>

  <rect x="444" y="224" width="648" height="52" rx="16" fill="#EDF6F7"/>
  <rect x="444" y="302" width="648" height="34" rx="16" fill="#F6FAFA"/>
  <rect x="444" y="358" width="310" height="252" rx="18" fill="#EDF6F7"/>
  <rect x="782" y="358" width="310" height="252" rx="18" fill="#EDF6F7"/>

  <text x="454" y="250" fill="#12313A" font-family="Avenir Next, Helvetica, Arial, sans-serif" font-size="22" font-weight="700">Make title, price, category, and specifics readable</text>
</svg>
