<svg xmlns="http://www.w3.org/2000/svg" width="1200" height="760" viewBox="0 0 1200 760" fill="none">
  <rect width="1200" height="760" rx="28" fill="#12313A"/>
  <rect x="22" y="22" width="1156" height="716" rx="24" fill="#F5FBFB" stroke="#83C1C6" stroke-width="2"/>
  <rect x="48" y="48" width="1104" height="52" rx="16" fill="#E5F2F3"/>
  <text x="78" y="82" fill="#12313A" font-family="Avenir Next, Helvetica, Arial, sans-serif" font-size="24" font-weight="700">Screenshot replacement guide</text>

  <text x="74" y="156" fill="#12313A" font-family="Avenir Next, Helvetica, Arial, sans-serif" font-size="36" font-weight="700">Use a real screenshot from:</text>
  <text x="74" y="208" fill="#187B83" font-family="Avenir Next, Helvetica, Arial, sans-serif" font-size="34" font-weight="700">Profile &gt; Setup &amp; Connections</text>
  <text x="74" y="274" fill="#12313A" font-family="Avenir Next, Helvetica, Arial, sans-serif" font-size="24" font-weight="700">Please keep these visible:</text>
  <text x="74" y="318" fill="#4A6971" font-family="Avenir Next, Helvetica, Arial, sans-serif" font-size="22">Setup Checklist</text>
  <text x="74" y="356" fill="#4A6971" font-family="Avenir Next, Helvetica, Arial, sans-serif" font-size="22">AI Providers</text>
  <text x="74" y="394" fill="#4A6971" font-family="Avenir Next, Helvetica, Arial, sans-serif" font-size="22">eBay Connection</text>
  <text x="74" y="432" fill="#4A6971" font-family="Avenir Next, Helvetica, Arial, sans-serif" font-size="22">Account / subscription state</text>

  <rect x="644" y="138" width="462" height="498" rx="24" fill="#DCEBED" stroke="#A9D2D5" stroke-width="2"/>
  <rect x="684" y="182" width="382" height="62" rx="18" fill="#FFFFFF"/>
  <rect x="684" y="268" width="382" height="104" rx="18" fill="#F8FCFC"/>
  <rect x="684" y="394" width="382" height="104" rx="18" fill="#F8FCFC"/>
  <rect x="684" y="520" width="382" height="76" rx="18" fill="#F8FCFC"/>
  <text x="718" y="224" fill="#12313A" font-family="Avenir Next, Helvetica, Arial, sans-serif" font-size="24" font-weight="700">Profile view area</text>
  <text x="718" y="304" fill="#4A6971" font-family="Avenir Next, Helvetica, Arial, sans-serif" font-size="20">Checklist and provider cards</text>
</svg>
